<?xml version="1.0" encoding="UTF-8"?><svg id="Layer_1" xmlns="http://www.w3.org/2000/svg" viewBox="0 0 478.71 346.25"><defs><style>.cls-1{letter-spacing:0em;}.cls-2{fill:#09b71a;}.cls-3{fill:gray;font-size:40px;}.cls-4{letter-spacing:.09em;}.cls-5{letter-spacing:.1em;}.cls-6{letter-spacing:-.06em;}.cls-7{font-size:120px;}</style></defs><path class="cls-2" d="M381.96,73.57l-7.36,29.43L299.19,23.91,402.19,0l-7.36,29.43c10.7,7.81,75.42,56.56,83.11,134.58,4.1,41.6-9.43,77.14-10.43,79.68-9.96,25.39-23.75,41.75-28.3,46.91-23.62,26.82-50.29,37.94-60.94,42.31-12.51,5.13-70.66,27.19-131.93,.14-52.45-23.15-78.61-69.69-76.8-71.51,1.56-1.57,22.77,31.11,66.37,48.42,42.35,16.82,97.68,15.89,139.25-11.17,16.11-10.48,26.14-22.28,29.79-26.81,23.9-29.66,27.9-62.55,28.75-75.04,.18-2.57,.25-4.65,.29-6.13,1.08-38.64-14.42-66.44-21.6-78.93-10.13-17.64-21.76-30.2-30.45-38.31Z"/><text class="cls-7" transform="translate(0 204.04)"><tspan class="cls-4" x="0" y="0">T</tspan><tspan class="cls-5" x="83.19" y="0">OWN</tspan></text><text class="cls-3" transform="translate(105.8 247.11)"><tspan x="0" y="0">SCRAP M</tspan><tspan class="cls-1" x="174" y="0">E</tspan><tspan class="cls-6" x="196.89" y="0">T</tspan><tspan x="219.3" y="0">AL</tspan></text></svg>